<mxfile host="Electron" agent="Mozilla/5.0 (Windows NT 10.0; Win64; x64) AppleWebKit/537.36 (KHTML, like Gecko) draw.io/24.7.17 Chrome/128.0.6613.36 Electron/32.0.1 Safari/537.36" version="24.7.17">
  <diagram id="buq9huou_ZSXjV5bt2Gp" name="Final">
    <mxGraphModel dx="1050" dy="5398" grid="1" gridSize="10" guides="1" tooltips="1" connect="1" arrows="1" fold="1" page="1" pageScale="1" pageWidth="3300" pageHeight="4681" math="0" shadow="0">
      <root>
        <mxCell id="0" />
        <mxCell id="1" parent="0" />
        <mxCell id="JsJfD6i_W_Ht_TmccBnN-2" style="edgeStyle=orthogonalEdgeStyle;rounded=0;orthogonalLoop=1;jettySize=auto;html=1;exitX=0;exitY=0.5;exitDx=0;exitDy=0;entryX=1;entryY=0.5;entryDx=0;entryDy=0;startArrow=oval;startFill=1;" edge="1" parent="1" source="Ck_tx94Fn3JlEluVxP94-1" target="UwcRR-4WYVW-YI5KBcxR-4">
          <mxGeometry relative="1" as="geometry" />
        </mxCell>
        <mxCell id="y8R0YqjswsJ9NqBpwsHq-1" value="Get Event History&lt;br&gt;Get Downtime" style="edgeLabel;html=1;align=center;verticalAlign=middle;resizable=0;points=[];" vertex="1" connectable="0" parent="JsJfD6i_W_Ht_TmccBnN-2">
          <mxGeometry x="0.025" y="2" relative="1" as="geometry">
            <mxPoint as="offset" />
          </mxGeometry>
        </mxCell>
        <mxCell id="Ck_tx94Fn3JlEluVxP94-1" value="Dashboard" style="rounded=0;whiteSpace=wrap;html=1;" vertex="1" parent="1">
          <mxGeometry x="800" y="150" width="120" height="60" as="geometry" />
        </mxCell>
        <mxCell id="SYffdvwuNaWqIZqPI6Dm-1" value="&lt;span style=&quot;color: rgb(0, 0, 0); font-family: Helvetica; font-size: 11px; font-style: normal; font-variant-ligatures: normal; font-variant-caps: normal; font-weight: 400; letter-spacing: normal; orphans: 2; text-align: center; text-indent: 0px; text-transform: none; widows: 2; word-spacing: 0px; -webkit-text-stroke-width: 0px; white-space: nowrap; background-color: rgb(255, 255, 255); text-decoration-thickness: initial; text-decoration-style: initial; text-decoration-color: initial; display: inline !important; float: none;&quot;&gt;Machine &lt;br&gt;Start/Stop&lt;/span&gt;" style="edgeStyle=orthogonalEdgeStyle;rounded=0;orthogonalLoop=1;jettySize=auto;html=1;exitX=1;exitY=0.75;exitDx=0;exitDy=0;entryX=0;entryY=0.5;entryDx=0;entryDy=0;strokeColor=#0000FF;" edge="1" parent="1" source="Ck_tx94Fn3JlEluVxP94-3" target="UwcRR-4WYVW-YI5KBcxR-4">
          <mxGeometry relative="1" as="geometry" />
        </mxCell>
        <mxCell id="yW6rLAzhhR2Amsgt7uZF-1" value="Set Stop Reason" style="edgeStyle=orthogonalEdgeStyle;rounded=0;orthogonalLoop=1;jettySize=auto;html=1;exitX=1;exitY=0.5;exitDx=0;exitDy=0;entryX=0;entryY=0.25;entryDx=0;entryDy=0;" edge="1" parent="1" source="Ck_tx94Fn3JlEluVxP94-3" target="UwcRR-4WYVW-YI5KBcxR-4">
          <mxGeometry x="-0.4595" relative="1" as="geometry">
            <Array as="points">
              <mxPoint x="500" y="100" />
              <mxPoint x="500" y="165" />
            </Array>
            <mxPoint as="offset" />
          </mxGeometry>
        </mxCell>
        <mxCell id="cZLLvzzblZ5OZlIJUlmf-2" value="Get Stop Events &lt;br&gt;For Machine" style="edgeStyle=orthogonalEdgeStyle;rounded=0;orthogonalLoop=1;jettySize=auto;html=1;exitX=1;exitY=0.25;exitDx=0;exitDy=0;entryX=0.25;entryY=0;entryDx=0;entryDy=0;startArrow=oval;startFill=1;" edge="1" parent="1" source="Ck_tx94Fn3JlEluVxP94-3" target="UwcRR-4WYVW-YI5KBcxR-4">
          <mxGeometry x="-0.1628" y="5" relative="1" as="geometry">
            <mxPoint x="540" y="140" as="targetPoint" />
            <Array as="points">
              <mxPoint x="550" y="85" />
            </Array>
            <mxPoint as="offset" />
          </mxGeometry>
        </mxCell>
        <mxCell id="Ck_tx94Fn3JlEluVxP94-3" value="Operator Input" style="rounded=0;whiteSpace=wrap;html=1;" vertex="1" parent="1">
          <mxGeometry x="280" y="70" width="120" height="60" as="geometry" />
        </mxCell>
        <mxCell id="XKg9XxdnLfKYUA7BFFZG-2" value="Machine &lt;br&gt;Start/Stop" style="edgeStyle=orthogonalEdgeStyle;rounded=0;orthogonalLoop=1;jettySize=auto;html=1;exitX=1;exitY=0.5;exitDx=0;exitDy=0;entryX=0;entryY=0.75;entryDx=0;entryDy=0;strokeColor=#0000FF;" edge="1" parent="1" source="Ck_tx94Fn3JlEluVxP94-4" target="UwcRR-4WYVW-YI5KBcxR-4">
          <mxGeometry relative="1" as="geometry" />
        </mxCell>
        <mxCell id="Ck_tx94Fn3JlEluVxP94-4" value="Sensor Adaptor" style="rounded=0;whiteSpace=wrap;html=1;" vertex="1" parent="1">
          <mxGeometry x="280" y="230" width="120" height="60" as="geometry" />
        </mxCell>
        <mxCell id="XKg9XxdnLfKYUA7BFFZG-1" style="edgeStyle=orthogonalEdgeStyle;rounded=0;orthogonalLoop=1;jettySize=auto;html=1;exitX=1;exitY=0.5;exitDx=0;exitDy=0;strokeColor=#0000FF;" edge="1" parent="1" source="UwcRR-4WYVW-YI5KBcxR-3" target="Ck_tx94Fn3JlEluVxP94-4">
          <mxGeometry relative="1" as="geometry" />
        </mxCell>
        <mxCell id="UwcRR-4WYVW-YI5KBcxR-3" value="Other Solutions" style="rounded=0;whiteSpace=wrap;html=1;" vertex="1" parent="1">
          <mxGeometry x="40" y="230" width="120" height="60" as="geometry" />
        </mxCell>
        <mxCell id="cZLLvzzblZ5OZlIJUlmf-1" value="New / Changed Stop Event" style="edgeStyle=orthogonalEdgeStyle;rounded=0;orthogonalLoop=1;jettySize=auto;html=1;exitX=0.5;exitY=0;exitDx=0;exitDy=0;entryX=0.75;entryY=0;entryDx=0;entryDy=0;strokeColor=#0000FF;" edge="1" parent="1" source="UwcRR-4WYVW-YI5KBcxR-4" target="Ck_tx94Fn3JlEluVxP94-3">
          <mxGeometry x="0.2121" relative="1" as="geometry">
            <mxPoint as="offset" />
          </mxGeometry>
        </mxCell>
        <mxCell id="UwcRR-4WYVW-YI5KBcxR-4" value="Data Storage" style="rounded=0;whiteSpace=wrap;html=1;" vertex="1" parent="1">
          <mxGeometry x="520" y="150" width="120" height="60" as="geometry" />
        </mxCell>
        <mxCell id="cZLLvzzblZ5OZlIJUlmf-3" value="MQTT Message" style="edgeStyle=orthogonalEdgeStyle;rounded=0;orthogonalLoop=1;jettySize=auto;html=1;exitX=1;exitY=0.5;exitDx=0;exitDy=0;strokeColor=#0000FF;" edge="1" parent="1">
          <mxGeometry relative="1" as="geometry">
            <mxPoint x="820" y="460" as="sourcePoint" />
            <mxPoint x="940" y="460" as="targetPoint" />
          </mxGeometry>
        </mxCell>
        <mxCell id="H2-_UoDlUL6a8Jtfu3ka-3" value="HTTP POST" style="edgeStyle=orthogonalEdgeStyle;rounded=0;orthogonalLoop=1;jettySize=auto;html=1;exitX=1;exitY=0.5;exitDx=0;exitDy=0;strokeColor=#000000;" edge="1" parent="1">
          <mxGeometry relative="1" as="geometry">
            <mxPoint x="820" y="480" as="sourcePoint" />
            <mxPoint x="940" y="480" as="targetPoint" />
          </mxGeometry>
        </mxCell>
        <mxCell id="H2-_UoDlUL6a8Jtfu3ka-4" value="HTTP GET" style="edgeStyle=orthogonalEdgeStyle;rounded=0;orthogonalLoop=1;jettySize=auto;html=1;exitX=1;exitY=0.5;exitDx=0;exitDy=0;strokeColor=#000000;startArrow=oval;startFill=1;" edge="1" parent="1">
          <mxGeometry relative="1" as="geometry">
            <mxPoint x="820" y="500" as="sourcePoint" />
            <mxPoint x="940" y="500" as="targetPoint" />
          </mxGeometry>
        </mxCell>
        <mxCell id="WsKbr7xuDEcng2c7H0v--2" style="edgeStyle=orthogonalEdgeStyle;rounded=0;orthogonalLoop=1;jettySize=auto;html=1;endArrow=none;endFill=0;dashed=1;dashPattern=8 8;" edge="1" parent="1" source="WsKbr7xuDEcng2c7H0v--1">
          <mxGeometry relative="1" as="geometry">
            <mxPoint x="450" y="260" as="targetPoint" />
          </mxGeometry>
        </mxCell>
        <mxCell id="WsKbr7xuDEcng2c7H0v--1" value="&lt;div style=&quot;text-align: left;&quot;&gt;&lt;span style=&quot;background-color: initial;&quot;&gt;&lt;b&gt;Topic:&lt;/b&gt;&lt;br&gt;downtime/event/&amp;lt;machine:uuid&amp;gt;/&amp;lt;stop|start&amp;gt;&lt;/span&gt;&lt;/div&gt;&lt;div style=&quot;text-align: left;&quot;&gt;&lt;b&gt;Payload:&lt;br&gt;&lt;/b&gt;{&lt;/div&gt;&lt;div style=&quot;text-align: left;&quot;&gt;&lt;span style=&quot;white-space-collapse: preserve;&quot;&gt;&#x9;&lt;/span&gt;&quot;timestamp&quot;: &quot;&amp;lt;iso8601&amp;gt;&quot;,&lt;/div&gt;&lt;div style=&quot;text-align: left;&quot;&gt;&lt;span style=&quot;white-space-collapse: preserve;&quot;&gt;&#x9;&lt;/span&gt;&quot;machine&quot;:&quot;&amp;lt;uuid&amp;gt;&quot;,&lt;/div&gt;&lt;div style=&quot;text-align: left;&quot;&gt;&lt;span style=&quot;white-space-collapse: preserve;&quot;&gt;&#x9;&lt;/span&gt;&quot;running&quot;:&amp;lt;boolean&amp;gt;,&lt;br&gt;&lt;/div&gt;&lt;div style=&quot;text-align: left;&quot;&gt;&lt;span style=&quot;white-space: pre;&quot;&gt;&#x9;&lt;/span&gt;&quot;source&quot;:&quot;&amp;lt;user|sensor&amp;gt;&quot;&lt;br&gt;&lt;/div&gt;&lt;div style=&quot;text-align: left;&quot;&gt;}&lt;/div&gt;" style="text;html=1;align=center;verticalAlign=middle;resizable=0;points=[];autosize=1;strokeColor=default;fillColor=none;" vertex="1" parent="1">
          <mxGeometry x="320" y="330" width="260" height="140" as="geometry" />
        </mxCell>
        <mxCell id="JsJfD6i_W_Ht_TmccBnN-1" value="&lt;div style=&quot;text-align: left;&quot;&gt;&lt;br&gt;&lt;/div&gt;" style="text;html=1;align=center;verticalAlign=middle;resizable=0;points=[];autosize=1;strokeColor=none;fillColor=none;" vertex="1" parent="1">
          <mxGeometry x="655" y="435" width="20" height="30" as="geometry" />
        </mxCell>
        <mxCell id="ySRnBwGYV8kaUFkyggSg-1" value="&lt;div style=&quot;text-align: left;&quot;&gt;&lt;span style=&quot;background-color: initial;&quot;&gt;&lt;b&gt;Topic:&lt;/b&gt;&lt;br&gt;downtime/state/&amp;lt;machine:uuid&amp;gt;/&amp;lt;new|update|remove&amp;gt;&lt;/span&gt;&lt;/div&gt;&lt;div style=&quot;text-align: left;&quot;&gt;&lt;b&gt;Payload:&lt;/b&gt;&lt;p style=&quot;margin: 0in;&quot;&gt;{&lt;/p&gt;&lt;p style=&quot;margin: 0in;&quot;&gt;&lt;span style=&quot;white-space: pre;&quot;&gt;&#x9;&lt;/span&gt;&quot;record_id&quot;: &amp;lt;int&amp;gt;,&lt;/p&gt;&lt;p style=&quot;margin: 0in;&quot;&gt;&amp;nbsp;&lt;span style=&quot;white-space: pre;&quot;&gt;&#x9;&lt;/span&gt;&quot;target&quot;: &quot;&amp;lt;uuid&amp;gt;&quot;,&lt;/p&gt;&lt;p style=&quot;margin: 0in;&quot;&gt;&lt;span style=&quot;white-space: pre;&quot;&gt;&#x9;&lt;/span&gt;&quot;running&quot;: &amp;lt;boolean&amp;gt;,&lt;/p&gt;&lt;p style=&quot;margin: 0in;&quot;&gt;&lt;span style=&quot;white-space: pre;&quot;&gt;&#x9;&lt;/span&gt;&quot;start&quot;: &quot;&amp;lt;iso8601&amp;gt;&quot;,&lt;/p&gt;&lt;p style=&quot;margin: 0in;&quot;&gt;&lt;span style=&quot;white-space: pre;&quot;&gt;&#x9;&lt;/span&gt;&quot;end&quot;: &quot;&amp;lt;iso8601&amp;gt;&quot; or null,&lt;/p&gt;&lt;p style=&quot;margin: 0in;&quot;&gt;&lt;span style=&quot;white-space: pre;&quot;&gt;&#x9;&lt;/span&gt;&quot;reason&quot;: &quot;&amp;lt;reason&amp;gt;&quot; or null&lt;/p&gt;&lt;p style=&quot;margin: 0in;&quot;&gt;}&lt;/p&gt;&lt;/div&gt;" style="text;html=1;align=center;verticalAlign=middle;resizable=0;points=[];autosize=1;strokeColor=default;fillColor=none;" vertex="1" parent="1">
          <mxGeometry x="650" y="-30" width="320" height="170" as="geometry" />
        </mxCell>
        <mxCell id="ySRnBwGYV8kaUFkyggSg-2" style="rounded=0;orthogonalLoop=1;jettySize=auto;html=1;endArrow=none;endFill=0;dashed=1;dashPattern=8 8;exitX=0;exitY=0.537;exitDx=0;exitDy=0;exitPerimeter=0;" edge="1" parent="1" source="ySRnBwGYV8kaUFkyggSg-1">
          <mxGeometry relative="1" as="geometry">
            <mxPoint x="580" y="61" as="targetPoint" />
            <mxPoint x="640" y="60" as="sourcePoint" />
          </mxGeometry>
        </mxCell>
      </root>
    </mxGraphModel>
  </diagram>
</mxfile>
